<svg width="83" height="52" viewBox="0 0 83 52" fill="none" xmlns="http://www.w3.org/2000/svg">
<path d="M45.5601 39.4887C45.4443 39.2635 45.2136 39.1218 44.9612 39.1218H43.6151V35.0635C43.6151 34.69 43.3141 34.3871 42.942 34.3871H40.2497C39.8777 34.3871 39.5766 34.69 39.5766 35.0635V39.1218H38.2305C37.978 39.1218 37.7473 39.2635 37.6316 39.4887C37.5166 39.7139 37.5363 39.985 37.683 40.1911L41.0483 44.9257C41.1745 45.1038 41.3783 45.2091 41.5958 45.2091C41.8133 45.2091 42.0171 45.1038 42.1434 44.9257L45.5087 40.1911C45.6553 39.9852 45.6751 39.7139 45.5601 39.4887ZM41.5959 43.3689L39.5385 40.4745H40.2498C40.6218 40.4745 40.9229 40.1716 40.9229 39.7981V35.7398H42.269V39.7981C42.269 40.1716 42.57 40.4745 42.9421 40.4745H43.6534L41.5959 43.3689Z" fill="black"/>
<path d="M13.5274 43.7818C13.7515 43.6655 13.8925 43.4336 13.8925 43.18V41.8273H17.9309C18.3026 41.8273 18.604 41.5248 18.604 41.1509V38.4453C18.604 38.0715 18.3026 37.7689 17.9309 37.7689H13.8925V36.4162C13.8925 36.1625 13.7515 35.9307 13.5274 35.8144C13.3033 35.6988 13.0335 35.7186 12.8284 35.866L8.11688 39.2478C7.93971 39.3747 7.8349 39.5795 7.8349 39.798C7.8349 40.0166 7.93971 40.2214 8.11688 40.3483L12.8284 43.7302C13.0333 43.8775 13.3033 43.8974 13.5274 43.7818ZM9.6661 39.7981L12.5463 37.7306V38.4454C12.5463 38.8192 12.8477 39.1218 13.2195 39.1218H17.2579V40.4745H13.2195C12.8477 40.4745 12.5463 40.777 12.5463 41.151V41.8657L9.6661 39.7981Z" fill="black"/>
<path d="M37.6316 13.2688C37.7473 13.494 37.978 13.6357 38.2304 13.6357H39.5766V17.694C39.5766 18.0675 39.8776 18.3704 40.2497 18.3704H42.942C43.314 18.3704 43.6151 18.0675 43.6151 17.694V13.6357H44.9612C45.2136 13.6357 45.4443 13.494 45.5601 13.2688C45.675 13.0436 45.6553 12.7725 45.5087 12.5664L42.1434 7.83175C42.0172 7.65371 41.8134 7.54838 41.5959 7.54838C41.3784 7.54838 41.1746 7.65371 41.0483 7.83175L37.6829 12.5664C37.5363 12.7723 37.5165 13.0436 37.6316 13.2688ZM41.5958 9.38858L43.6531 12.283H42.9419C42.5699 12.283 42.2688 12.5859 42.2688 12.9594V17.0177H40.9227V12.9594C40.9227 12.5859 40.6217 12.283 40.2496 12.283H39.5383L41.5958 9.38858Z" fill="black"/>
<path d="M69.6648 35.8144C69.4407 35.9307 69.2997 36.1626 69.2997 36.4162V37.7689H65.2612C64.8895 37.7689 64.5881 38.0714 64.5881 38.4453V41.1509C64.5881 41.5247 64.8895 41.8273 65.2612 41.8273H69.2997V43.18C69.2997 43.4337 69.4407 43.6655 69.6648 43.7818C69.8889 43.8974 70.1586 43.8775 70.3637 43.7302L75.0753 40.3484C75.2524 40.2215 75.3572 40.0167 75.3572 39.7982C75.3572 39.5796 75.2524 39.3748 75.0753 39.2479L70.3637 35.866C70.1588 35.7187 69.8889 35.6988 69.6648 35.8144ZM73.526 39.7981L70.6458 41.8655V41.1508C70.6458 40.777 70.3444 40.4744 69.9727 40.4744H65.9342V39.1217H69.9727C70.3444 39.1217 70.6458 38.8192 70.6458 38.4452V37.7305L73.526 39.7981Z" fill="black"/>
<path d="M49.0725 26.8387H33.927C30.8664 26.8387 28.3767 29.3406 28.3767 32.4163V46.4224C28.3767 49.4981 30.8664 52 33.927 52H49.0725C52.1331 52 54.6232 49.4981 54.6232 46.4224V32.4163C54.6228 29.3406 52.1327 26.8387 49.0725 26.8387ZM49.8629 47.0523H32.9482V31.4327H49.8629V47.0523Z" fill="black"/>
<path d="M20.6958 26.8387H5.5503C2.48966 26.8387 0 29.3406 0 32.4163V46.4224C0 49.4981 2.48966 52 5.5503 52H20.6958C23.7564 52 26.2465 49.4981 26.2465 46.4224V32.4163C26.2461 29.3406 23.756 26.8387 20.6958 26.8387ZM21.4862 47.0523H4.57153V31.4327H21.4862V47.0523Z" fill="black"/>
<path d="M49.0725 0H33.927C30.8664 0 28.3767 2.50188 28.3767 5.57756V19.5837C28.3767 22.6594 30.8664 25.1613 33.927 25.1613H49.0725C52.1331 25.1613 54.6232 22.6594 54.6232 19.5837V5.57756C54.6228 2.50188 52.1327 0 49.0725 0ZM49.8629 20.2136H32.9482V4.59399H49.8629V20.2136Z" fill="black"/>
<path d="M77.4492 26.8387H62.3037C59.2431 26.8387 56.7534 29.3406 56.7534 32.4163V46.4224C56.7534 49.4981 59.2431 52 62.3037 52H77.4492C80.5098 52 83 49.4981 83 46.4224V32.4163C82.9995 29.3406 80.5094 26.8387 77.4492 26.8387ZM78.2396 47.0523H61.325V31.4327H78.2396V47.0523Z" fill="black"/>
</svg>
