<svg width="21" height="33" viewBox="0 0 21 33" fill="none" xmlns="http://www.w3.org/2000/svg">
<path d="M18.1335 1.34829L16.9934 2.42204C16.9247 2.49349 16.8863 2.58868 16.886 2.68779C16.8857 2.78691 16.9237 2.88232 16.992 2.95416C17.0603 3.02599 17.1536 3.06872 17.2526 3.07345C17.3516 3.07818 17.4486 3.04454 17.5235 2.97954L18.6634 1.90579C18.7027 1.87168 18.7347 1.82997 18.7574 1.78317C18.7801 1.73637 18.7931 1.68546 18.7955 1.6335C18.798 1.58155 18.79 1.52963 18.7718 1.48088C18.7537 1.43213 18.7258 1.38757 18.69 1.34987C18.6542 1.31217 18.6111 1.28213 18.5633 1.26155C18.5155 1.24097 18.4641 1.23029 18.4121 1.23014C18.36 1.22999 18.3085 1.24038 18.2607 1.26069C18.2128 1.281 18.1695 1.3108 18.1335 1.34829V1.34829Z" fill="black"/>
<path d="M15.2483 0.374539L15.2046 1.93579C15.2004 1.98766 15.2069 2.03984 15.2234 2.08916C15.24 2.13849 15.2665 2.18394 15.3011 2.22277C15.3357 2.2616 15.3779 2.29301 15.425 2.31509C15.4721 2.33717 15.5232 2.34947 15.5752 2.35125C15.6272 2.35302 15.6791 2.34424 15.7276 2.32542C15.7761 2.3066 15.8203 2.27815 15.8575 2.24177C15.8947 2.20539 15.9242 2.16185 15.9441 2.11377C15.964 2.06569 15.974 2.01407 15.9734 1.96204L16.0196 0.397039C16.0211 0.346398 16.0126 0.295962 15.9945 0.248611C15.9765 0.201259 15.9494 0.157919 15.9146 0.121066C15.8799 0.0842128 15.8382 0.0545676 15.7919 0.0338232C15.7457 0.0130788 15.6959 0.00164145 15.6452 0.000164075C15.5946 -0.0013133 15.5442 0.00719829 15.4968 0.0252129C15.4494 0.0432274 15.4061 0.0703922 15.3693 0.105156C15.3324 0.13992 15.3028 0.181602 15.282 0.227823C15.2613 0.274044 15.2498 0.323898 15.2483 0.374539V0.374539Z" fill="black"/>
<path d="M7.01335 11.2658V12.6008C4.71139 13.3502 2.75275 14.897 1.49037 16.9627C0.227995 19.0283 -0.255118 21.4769 0.128088 23.8673C0.511294 26.2576 1.73562 28.4325 3.58046 30C5.42529 31.5675 7.76931 32.4246 10.1902 32.4169C12.611 32.4091 14.9495 31.5369 16.7842 29.9576C18.6189 28.3783 19.8292 26.1956 20.1971 23.8028C20.5649 21.4101 20.0661 18.9646 18.7905 16.9071C17.5149 14.8496 15.5463 13.3153 13.2396 12.5808V11.2608C13.2393 10.9198 13.1036 10.5928 12.8625 10.3516C12.6213 10.1105 12.2944 9.97486 11.9533 9.97453H8.2996C8.13031 9.9747 7.96271 10.0082 7.80641 10.0733C7.6501 10.1383 7.50815 10.2335 7.38868 10.3534C7.26921 10.4733 7.17456 10.6157 7.11016 10.7722C7.04575 10.9288 7.01286 11.0965 7.01335 11.2658V11.2658ZM7.3446 16.8908C6.36721 17.4013 5.54862 18.1702 4.97799 19.1138C4.40736 20.0573 4.10656 21.1394 4.10834 22.242C4.10834 22.4953 4.00773 22.7382 3.82863 22.9173C3.64953 23.0964 3.40662 23.197 3.15334 23.197C2.90006 23.197 2.65715 23.0964 2.47806 22.9173C2.29896 22.7382 2.19834 22.4953 2.19834 22.242C2.1964 20.7913 2.59228 19.3678 3.34292 18.1263C4.09357 16.8849 5.17024 15.873 6.45584 15.2008C6.68011 15.0829 6.94202 15.059 7.18394 15.1343C7.42586 15.2095 7.62799 15.3778 7.74585 15.6021C7.8637 15.8263 7.88763 16.0882 7.81239 16.3301C7.73714 16.5721 7.56887 16.7742 7.3446 16.892V16.8908Z" fill="black"/>
<path d="M14.1347 2.87704C14.2082 2.80654 14.2509 2.70984 14.2535 2.608C14.2561 2.50615 14.2183 2.40742 14.1485 2.33329L13.0747 1.19329C13.0032 1.12459 12.908 1.08609 12.8089 1.08581C12.7098 1.08553 12.6144 1.12348 12.5426 1.19178C12.4707 1.26007 12.428 1.35344 12.4233 1.45244C12.4186 1.55145 12.4522 1.64846 12.5172 1.72329L13.5909 2.86329C13.6622 2.93537 13.7587 2.97706 13.8601 2.97962C13.9614 2.98218 14.0598 2.94542 14.1347 2.87704V2.87704Z" fill="black"/>
<path d="M16.8845 6.34579L17.9583 7.48579C17.9924 7.52506 18.0341 7.55701 18.0809 7.57971C18.1277 7.60241 18.1786 7.61539 18.2305 7.61787C18.2825 7.62036 18.3344 7.61228 18.3831 7.59415C18.4319 7.57601 18.4765 7.54818 18.5142 7.51234C18.5519 7.4765 18.5819 7.4334 18.6025 7.38563C18.6231 7.33786 18.6337 7.28642 18.6339 7.2344C18.634 7.18239 18.6236 7.13088 18.6033 7.083C18.583 7.03511 18.5532 6.99184 18.5157 6.95579L17.442 5.81579C17.4079 5.77652 17.3662 5.74458 17.3194 5.72187C17.2726 5.69917 17.2217 5.68619 17.1697 5.68371C17.1178 5.68123 17.0658 5.6893 17.0171 5.70744C16.9684 5.72557 16.9238 5.7534 16.8861 5.78924C16.8484 5.82508 16.8183 5.86818 16.7978 5.91595C16.7772 5.96372 16.7665 6.01516 16.7664 6.06717C16.7662 6.11918 16.7766 6.17069 16.7969 6.21858C16.8172 6.26646 16.847 6.30974 16.8845 6.34579V6.34579Z" fill="black"/>
<path d="M17.5322 4.39954C17.5305 4.45031 17.5389 4.50091 17.5569 4.54842C17.5749 4.59593 17.6021 4.63941 17.6369 4.67636C17.6718 4.71331 17.7136 4.74299 17.76 4.7637C17.8064 4.78442 17.8564 4.79575 17.9072 4.79704L19.4722 4.84329C19.5713 4.84215 19.6661 4.80287 19.7369 4.73361C19.8077 4.66436 19.8492 4.57046 19.8526 4.47145C19.8559 4.37244 19.821 4.27594 19.7551 4.20202C19.6891 4.12809 19.5972 4.08244 19.4984 4.07454L17.9335 4.02829C17.8824 4.0247 17.8311 4.03162 17.7827 4.04861C17.7344 4.06561 17.6901 4.09233 17.6525 4.12711C17.6149 4.1619 17.5848 4.20402 17.5642 4.25087C17.5435 4.29772 17.5326 4.34832 17.5322 4.39954V4.39954Z" fill="black"/>
<path d="M9.61084 9.02329H10.9171C11.1706 7.97813 11.739 7.03605 12.5454 6.32445C13.3518 5.61285 14.3573 5.16608 15.4258 5.04454C15.5827 5.02963 15.7287 4.95783 15.8362 4.84269C15.9437 4.72755 16.0054 4.57704 16.0096 4.41954C16.0087 4.32976 15.9888 4.24117 15.9513 4.15962C15.9137 4.07806 15.8594 4.00537 15.7917 3.94634C15.724 3.88731 15.6447 3.84326 15.5588 3.81709C15.4729 3.79093 15.3824 3.78325 15.2933 3.79454C13.9128 3.94731 12.6171 4.53689 11.595 5.47739C10.5728 6.4179 9.87771 7.66018 9.61084 9.02329V9.02329Z" fill="black"/>
<path d="M15.0621 6.72704L15.0183 8.28829C15.0142 8.34016 15.0206 8.39233 15.0372 8.44166C15.0537 8.49098 15.0801 8.53644 15.1148 8.57527C15.1494 8.6141 15.1916 8.6455 15.2387 8.66758C15.2858 8.68967 15.3369 8.70197 15.389 8.70375C15.441 8.70552 15.4928 8.69674 15.5413 8.67792C15.5898 8.65911 15.634 8.63064 15.6712 8.59427C15.7084 8.55789 15.7379 8.51435 15.7578 8.46627C15.7777 8.41819 15.7877 8.36658 15.7871 8.31454L15.8333 6.74953C15.835 6.69876 15.8266 6.64818 15.8086 6.60067C15.7906 6.55316 15.7634 6.50967 15.7286 6.47272C15.6937 6.43577 15.6519 6.40609 15.6055 6.38537C15.5591 6.36466 15.5091 6.35334 15.4583 6.35204C15.4073 6.34915 15.3562 6.3567 15.3083 6.37424C15.2603 6.39179 15.2164 6.41895 15.1793 6.45407C15.1422 6.48918 15.1127 6.53151 15.0925 6.57845C15.0724 6.62539 15.062 6.67595 15.0621 6.72704V6.72704Z" fill="black"/>
</svg>
