<svg width="68" height="34" viewBox="0 0 68 34" fill="none" xmlns="http://www.w3.org/2000/svg">
<path d="M58.3768 0H9.62324C4.31662 0.000620778 0 3.38137 0 7.53686V26.4631C0 30.6192 4.31662 34 9.62324 34H58.3768C63.6834 34 68 30.6192 68 26.4631V7.53686C68 3.38075 63.6834 0 58.3768 0ZM63.8154 29.75H4.18462V4.49299H63.8154V29.75Z" fill="black"/>
<path d="M14.9831 18.0813L19.018 20.7409V18.6798H31.1187V13.5196H29.6059V17.4827H19.018V15.2299L14.9831 18.0813Z" fill="black"/>
<path d="M36.8384 17.2979H34.7944V18.8292H37.1836V19.5196H33.9297V14.5431H37.1597V15.2403H34.7944V16.6143H36.8384V17.2979ZM38.5781 15.8214L38.6021 16.2486C38.8755 15.9182 39.2344 15.753 39.6787 15.753C40.4489 15.753 40.8408 16.1939 40.8545 17.0758V19.5196H40.0239V17.1236C40.0239 16.8889 39.9727 16.7157 39.8701 16.6041C39.7699 16.4902 39.6047 16.4332 39.3745 16.4332C39.0396 16.4332 38.79 16.5847 38.626 16.8878V19.5196H37.7954V15.8214H38.5781ZM42.7446 14.9225V15.8214H43.3975V16.4366H42.7446V18.5011C42.7446 18.6423 42.772 18.7449 42.8267 18.8087C42.8836 18.8702 42.9839 18.901 43.1274 18.901C43.2231 18.901 43.32 18.8896 43.418 18.8668V19.5094C43.2288 19.5618 43.0465 19.588 42.8711 19.588C42.2331 19.588 41.9141 19.2359 41.9141 18.5318V16.4366H41.3057V15.8214H41.9141V14.9225H42.7446ZM45.6636 19.588C45.1372 19.588 44.71 19.4228 44.3818 19.0924C44.056 18.7597 43.8931 18.3176 43.8931 17.7662V17.6637C43.8931 17.2945 43.9637 16.9653 44.105 16.6759C44.2485 16.3842 44.4491 16.1575 44.7065 15.9957C44.964 15.8339 45.2511 15.753 45.5679 15.753C46.0715 15.753 46.46 15.9137 46.7334 16.235C47.0091 16.5562 47.147 17.0108 47.147 17.5987V17.9337H44.7305C44.7555 18.239 44.8569 18.4806 45.0347 18.6583C45.2147 18.836 45.4403 18.9249 45.7114 18.9249C46.092 18.9249 46.4019 18.7711 46.6411 18.4635L47.0889 18.8907C46.9408 19.1117 46.7425 19.2838 46.4941 19.4068C46.248 19.5276 45.9712 19.588 45.6636 19.588ZM45.5645 16.4195C45.3366 16.4195 45.152 16.4993 45.0107 16.6588C44.8717 16.8183 44.7829 17.0405 44.7441 17.3253H46.3267V17.2638C46.3084 16.9858 46.2344 16.7761 46.1045 16.6349C45.9746 16.4913 45.7946 16.4195 45.5645 16.4195ZM49.731 16.5802C49.6216 16.5619 49.5088 16.5528 49.3926 16.5528C49.012 16.5528 48.7557 16.6987 48.6235 16.9903V19.5196H47.793V15.8214H48.5859L48.6064 16.235C48.807 15.9137 49.085 15.753 49.4404 15.753C49.5589 15.753 49.6569 15.769 49.7344 15.8009L49.731 16.5802Z" fill="black"/>
</svg>
