<svg width="48" height="25" viewBox="0 0 48 25" fill="none" xmlns="http://www.w3.org/2000/svg">
<path d="M19.5007 12.5931H16.2664V14.6263H20.0867V16.2083H14.2097V7.67709H20.0984V9.26498H16.2664V11.0638H19.5007V12.5931ZM24.1531 14.4271C24.1531 14.2591 24.0652 14.1244 23.8894 14.0228C23.7136 13.9212 23.3796 13.8158 22.8875 13.7064C22.3953 13.597 21.989 13.4544 21.6687 13.2787C21.3484 13.099 21.1042 12.8822 20.9363 12.6283C20.7683 12.3744 20.6843 12.0833 20.6843 11.7552C20.6843 11.1732 20.9246 10.6947 21.405 10.3197C21.8855 9.94077 22.5144 9.75131 23.2917 9.75131C24.1277 9.75131 24.7996 9.94077 25.3074 10.3197C25.8152 10.6986 26.0691 11.1966 26.0691 11.8138H24.0886C24.0886 11.306 23.821 11.0521 23.2859 11.0521C23.0789 11.0521 22.905 11.1107 22.7644 11.2279C22.6238 11.3412 22.5535 11.4837 22.5535 11.6556C22.5535 11.8314 22.6394 11.974 22.8113 12.0833C22.9832 12.1927 23.2566 12.2826 23.6316 12.3529C24.0105 12.4232 24.3425 12.5072 24.6277 12.6048C25.5808 12.933 26.0574 13.5208 26.0574 14.3685C26.0574 14.9466 25.7996 15.4173 25.2839 15.7806C24.7722 16.1439 24.1082 16.3255 23.2917 16.3255C22.7488 16.3255 22.2644 16.2279 21.8386 16.0326C21.4128 15.8372 21.0808 15.5716 20.8425 15.2357C20.6042 14.8997 20.4851 14.5462 20.4851 14.1751H22.3308C22.3386 14.4681 22.4363 14.683 22.6238 14.8197C22.8113 14.9525 23.0515 15.0189 23.3445 15.0189C23.614 15.0189 23.8152 14.9642 23.948 14.8548C24.0847 14.7455 24.1531 14.6029 24.1531 14.4271ZM29.6667 14.8021C29.9441 14.8021 30.1589 14.7279 30.3113 14.5794C30.4636 14.4271 30.5378 14.2162 30.5339 13.9466H32.3855C32.3855 14.6419 32.1355 15.2122 31.6355 15.6576C31.1394 16.1029 30.4988 16.3255 29.7136 16.3255C28.7917 16.3255 28.0652 16.0365 27.5339 15.4583C27.0027 14.8802 26.7371 14.0794 26.7371 13.056V12.974C26.7371 12.3333 26.8542 11.7689 27.0886 11.2806C27.3269 10.7884 27.6687 10.4115 28.114 10.1497C28.5593 9.88412 29.0867 9.75131 29.696 9.75131C30.5203 9.75131 31.1746 9.97983 31.6589 10.4369C32.1433 10.8939 32.3855 11.513 32.3855 12.2943H30.5339C30.5339 11.9662 30.4539 11.7142 30.2937 11.5384C30.1335 11.3626 29.9187 11.2747 29.6492 11.2747C29.1375 11.2747 28.8386 11.6009 28.7527 12.2533C28.7253 12.4603 28.7117 12.7455 28.7117 13.1087C28.7117 13.7455 28.7878 14.1869 28.9402 14.433C29.0925 14.679 29.3347 14.8021 29.6667 14.8021Z" fill="black"/>
<path d="M37.8487 0H10.1505C4.55311 0 0 2.48585 0 5.54181V19.4582C0 22.5142 4.55311 25 10.1505 25H37.8487C43.4461 25 48 22.5142 48 19.4582V5.54181C47.9992 2.48585 43.4452 0 37.8487 0ZM43.4286 20.4545H4.57143V4.54545H43.4286V20.4545Z" fill="black"/>
</svg>
