<svg width="26" height="25" viewBox="0 0 26 25" fill="none" xmlns="http://www.w3.org/2000/svg">
<path d="M20.5014 0H5.49816C2.46627 0 0 2.48585 0 5.54181V19.4582C0 22.5142 2.46627 25 5.49816 25H20.5014C23.5333 25 26 22.5142 26 19.4582V5.54181C25.9995 2.48585 23.5328 0 20.5014 0ZM21.2844 20.084H4.52859V4.56454H21.2844V20.084Z" fill="black"/>
<path d="M12.7881 13.5809H11.6748V16.5926H9.61816V8.06134H12.9756C13.9873 8.06134 14.7783 8.28595 15.3486 8.73517C15.9189 9.18439 16.2041 9.81915 16.2041 10.6395C16.2041 11.2332 16.083 11.7254 15.8408 12.116C15.6025 12.5067 15.2275 12.8231 14.7158 13.0652L16.4971 16.5047V16.5926H14.2939L12.7881 13.5809ZM11.6748 11.993H12.9756C13.3662 11.993 13.6592 11.8914 13.8545 11.6883C14.0537 11.4813 14.1533 11.1942 14.1533 10.827C14.1533 10.4598 14.0537 10.1727 13.8545 9.96564C13.6553 9.7547 13.3623 9.64923 12.9756 9.64923H11.6748V11.993Z" fill="black"/>
</svg>
