<svg width="28" height="27" viewBox="0 0 28 27" fill="none" xmlns="http://www.w3.org/2000/svg">
<path d="M26.369 11.5714H18.6547C18.1224 11.5714 17.6904 11.1394 17.6904 10.6071C17.6904 10.0748 18.1224 9.64284 18.6547 9.64284H25.4047V2.89284C25.4047 2.36056 25.8367 1.92856 26.369 1.92856C26.9013 1.92856 27.3333 2.36056 27.3333 2.89284V10.6071C27.3333 11.1394 26.9013 11.5714 26.369 11.5714Z" fill="black"/>
<path d="M1.29754 25.0714C0.765252 25.0714 0.333252 24.6394 0.333252 24.1071V16.3928C0.333252 15.8605 0.765252 15.4285 1.29754 15.4285H9.01182C9.54411 15.4285 9.97611 15.8605 9.97611 16.3928C9.97611 16.9251 9.54411 17.3571 9.01182 17.3571H2.26182V24.1071C2.26182 24.6394 1.82982 25.0714 1.29754 25.0714Z" fill="black"/>
<path d="M26.0219 11.5714C25.5822 11.5714 25.1868 11.2706 25.0827 10.827C23.86 5.58707 19.2353 1.92857 13.8333 1.92857C8.43142 1.92857 3.80671 5.58707 2.58399 10.827C2.46249 11.3439 1.95142 11.6659 1.42492 11.5464C0.906135 11.4249 0.584064 10.9061 0.703635 10.3873C2.13271 4.27178 7.53078 0 13.8333 0C20.1359 0 25.534 4.27178 26.9631 10.3873C27.0826 10.9061 26.7625 11.4249 26.2418 11.5464C26.1685 11.5637 26.0933 11.5714 26.0219 11.5714Z" fill="black"/>
<path d="M13.8333 27C7.53078 27 2.13271 22.7282 0.703635 16.6127C0.584064 16.094 0.906135 15.5752 1.42492 15.4537C1.95142 15.3322 2.46249 15.6562 2.58399 16.173C3.80671 21.4129 8.43142 25.0714 13.8333 25.0714C19.2353 25.0714 23.86 21.4129 25.0827 16.173C25.2061 15.6562 25.7172 15.3322 26.2418 15.4537C26.7625 15.5732 27.0846 16.094 26.9631 16.6127C25.534 22.7282 20.1359 27 13.8333 27V27Z" fill="black"/>
</svg>
