<svg width="151" height="36" viewBox="0 0 151 36" fill="none" xmlns="http://www.w3.org/2000/svg">
<path d="M144.997 0.999989H16.1085C14.0591 0.999989 19.3993 0.438552 19.3993 3.08736C19.3993 5.73616 13.6798 5.17472 15.7292 5.17472H146.806V31.2668H4.19444V5.17472H15.7292C17.7785 5.17472 20.4479 5.73616 20.4479 3.08736C20.4479 0.438552 18.1578 0.999989 16.1085 0.999989H6.00266C2.69257 0.999989 6.80775e-08 4.48017 6.80775e-08 8.75852V28.2415C-0.000494344 32.5198 2.69208 36 6.00217 36H144.997C148.307 36 151 32.5198 151 28.2415V8.75852C151 4.48017 148.307 0.999989 144.997 0.999989Z" fill="black"/>
<path d="M59.4102 18.8578C59.4102 18.5141 59.2884 18.2491 59.0449 18.0629C58.805 17.8767 58.37 17.6887 57.7397 17.4989C57.1095 17.3092 56.6082 17.0979 56.2358 16.8651C55.5233 16.4176 55.167 15.8339 55.167 15.1142C55.167 14.484 55.423 13.9648 55.9351 13.5565C56.4507 13.1483 57.1185 12.9442 57.9385 12.9442C58.4827 12.9442 58.9679 13.0445 59.394 13.245C59.8201 13.4455 60.1549 13.732 60.3984 14.1044C60.6419 14.4732 60.7637 14.8832 60.7637 15.3344H59.4102C59.4102 14.9262 59.2812 14.6075 59.0234 14.3783C58.7692 14.1456 58.404 14.0292 57.9277 14.0292C57.4837 14.0292 57.1382 14.1241 56.8911 14.3139C56.6476 14.5037 56.5259 14.7686 56.5259 15.1088C56.5259 15.3953 56.6584 15.6352 56.9233 15.8285C57.1883 16.0183 57.6252 16.2045 58.2339 16.3871C58.8426 16.5662 59.3314 16.772 59.7002 17.0048C60.069 17.234 60.3394 17.4989 60.5112 17.7997C60.6831 18.0969 60.769 18.446 60.769 18.8471C60.769 19.4988 60.5184 20.018 60.0171 20.4047C59.5194 20.7878 58.8426 20.9794 57.9868 20.9794C57.4211 20.9794 56.9001 20.8756 56.4238 20.6679C55.9512 20.4566 55.5824 20.1666 55.3174 19.7978C55.056 19.4289 54.9253 18.9993 54.9253 18.5087H56.2842C56.2842 18.9527 56.431 19.2965 56.7246 19.5399C57.0182 19.7834 57.439 19.9052 57.9868 19.9052C58.4595 19.9052 58.814 19.8103 59.0503 19.6205C59.2902 19.4272 59.4102 19.1729 59.4102 18.8578ZM68.6293 18.0253C68.6293 18.9241 68.4252 19.642 68.017 20.1791C67.6088 20.7126 67.061 20.9794 66.3735 20.9794C65.7361 20.9794 65.2258 20.7699 64.8427 20.351V23.1064H63.5375V15.0605H64.7406L64.7944 15.6513C65.1775 15.1858 65.6985 14.953 66.3573 14.953C67.0663 14.953 67.6213 15.218 68.0224 15.748C68.427 16.2743 68.6293 17.0066 68.6293 17.9447V18.0253ZM67.3295 17.9125C67.3295 17.3324 67.2131 16.8723 66.9804 16.5321C66.7512 16.192 66.4218 16.0219 65.9921 16.0219C65.4586 16.0219 65.0754 16.2421 64.8427 16.6825V19.2607C65.079 19.7118 65.4657 19.9374 66.0029 19.9374C66.4182 19.9374 66.7423 19.7709 66.975 19.4379C67.2113 19.1013 67.3295 18.5928 67.3295 17.9125ZM74.9159 20.872C74.8586 20.761 74.8084 20.5801 74.7655 20.3295C74.3501 20.7628 73.8416 20.9794 73.2401 20.9794C72.6564 20.9794 72.1802 20.8129 71.8114 20.4799C71.4426 20.1469 71.2581 19.7351 71.2581 19.2445C71.2581 18.6251 71.4873 18.1506 71.9456 17.8212C72.4076 17.4882 73.0664 17.3217 73.9222 17.3217H74.7225V16.9403C74.7225 16.6396 74.6384 16.3996 74.4701 16.2206C74.3018 16.038 74.0457 15.9467 73.702 15.9467C73.4048 15.9467 73.1613 16.0219 72.9715 16.1723C72.7817 16.3191 72.6869 16.5071 72.6869 16.7362H71.3817C71.3817 16.4176 71.4873 16.1204 71.6986 15.8446C71.9098 15.5653 72.1963 15.3469 72.5579 15.1894C72.9232 15.0318 73.3296 14.953 73.7772 14.953C74.4575 14.953 75 15.1249 75.4046 15.4687C75.8093 15.8088 76.0169 16.2886 76.0277 16.9081V19.5292C76.0277 20.052 76.1011 20.4691 76.2479 20.7807V20.872H74.9159ZM73.4818 19.932C73.7396 19.932 73.9813 19.8694 74.2069 19.744C74.436 19.6187 74.6079 19.4504 74.7225 19.2392V18.1435H74.0189C73.5355 18.1435 73.172 18.2276 72.9286 18.3959C72.6851 18.5642 72.5633 18.8023 72.5633 19.1103C72.5633 19.3609 72.6457 19.5614 72.8104 19.7118C72.9787 19.8586 73.2025 19.932 73.4818 19.932ZM81.4871 19.9374C81.8129 19.9374 82.0833 19.8425 82.2981 19.6527C82.5129 19.463 82.6275 19.2284 82.6419 18.9491H83.8718C83.8575 19.3108 83.7447 19.6492 83.5335 19.9643C83.3222 20.2758 83.0357 20.5229 82.6741 20.7055C82.3124 20.8881 81.9221 20.9794 81.5032 20.9794C80.6904 20.9794 80.0458 20.7162 79.5696 20.1898C79.0934 19.6635 78.8552 18.9366 78.8552 18.0092V17.8749C78.8552 16.9905 79.0916 16.2833 79.5642 15.7533C80.0369 15.2198 80.6814 14.953 81.4978 14.953C82.1889 14.953 82.7511 15.1553 83.1843 15.56C83.6212 15.961 83.8504 16.4892 83.8718 17.1444H82.6419C82.6275 16.8114 82.5129 16.5375 82.2981 16.3227C82.0868 16.1078 81.8165 16.0004 81.4871 16.0004C81.0645 16.0004 80.7387 16.1544 80.5095 16.4623C80.2804 16.7667 80.164 17.2304 80.1604 17.8534V18.0629C80.1604 18.6931 80.2732 19.164 80.4988 19.4755C80.728 19.7834 81.0574 19.9374 81.4871 19.9374ZM89.1218 20.9794C88.2946 20.9794 87.6232 20.7198 87.1076 20.2006C86.5956 19.6778 86.3395 18.9831 86.3395 18.1166V17.9555C86.3395 17.3754 86.4505 16.858 86.6725 16.4032C86.8981 15.9449 87.2132 15.5886 87.6179 15.3344C88.0225 15.0801 88.4736 14.953 88.9714 14.953C89.7627 14.953 90.3732 15.2055 90.8029 15.7104C91.2362 16.2152 91.4528 16.9296 91.4528 17.8534V18.3798H87.6554C87.6948 18.8596 87.8542 19.2392 88.1335 19.5185C88.4164 19.7978 88.7708 19.9374 89.197 19.9374C89.7949 19.9374 90.2819 19.6957 90.6579 19.2123L91.3615 19.8837C91.1288 20.231 90.8172 20.5014 90.4269 20.6947C90.0402 20.8845 89.6052 20.9794 89.1218 20.9794ZM88.966 16.0004C88.6079 16.0004 88.3179 16.1257 88.0959 16.3764C87.8775 16.627 87.7378 16.9761 87.6769 17.4237H90.1637V17.3271C90.1351 16.8902 90.0187 16.5608 89.8146 16.3388C89.6105 16.1132 89.3276 16.0004 88.966 16.0004Z" fill="black"/>
</svg>
